<svg xmlns="http://www.w3.org/2000/svg" viewBox="0 0 156.936 156.936" height="593.143" width="593.143"><path d="M0 78.468V0h156.936v156.936H0z" fill="#fefefe"/><path d="M58.778 156.86c-.04-.043-.143-13.181-.23-29.196l-.157-29.12-29.119-.157c-16.015-.086-29.153-.19-29.195-.23-.1-.095-.1-39.284 0-39.379.042-.04 13.18-.143 29.195-.23l29.12-.157.156-29.119c.087-16.015.19-29.153.23-29.195.04-.043 8.9-.077 19.69-.077 10.79 0 19.65.034 19.69.077.04.042.143 13.18.23 29.195l.157 29.12 29.119.156c16.015.087 29.153.19 29.195.23.042.04.077 8.9.077 19.69 0 10.79-.035 19.65-.077 19.69-.042.04-13.18.143-29.195.23l-29.12.157-.157 29.119c-.086 16.015-.19 29.153-.23 29.195-.04.042-8.9.077-19.69.077-10.788 0-19.649-.035-19.689-.077z" fill="#a6a6a6"/><path d="M58.776 127.587l-.078-29.349-29.35-.078L0 98.082V58.854l29.349-.078 29.349-.078.078-29.35L58.854 0h39.228l.078 29.349.078 29.349 29.349.078 29.349.078v39.228l-29.349.078-29.349.078-.078 29.349-.078 29.349H58.854z" fill="#595959"/><path d="M59.004 127.434V97.932H0V59.004h59.004V0h38.928v59.004h59.004v38.928H97.932v59.004H59.004z" fill="#1c1c1c"/><path d="M58.85 156.63c0-.17.139-.307.307-.307.479 0 .418-58.004-.06-58.483-.48-.48-58.484-.54-58.484-.062a.307.307 0 01-.306.307C.105 98.085 0 91.34 0 78.468 0 65.594.105 58.85.307 58.85c.168 0 .306.138.306.306 0 .479 58.004.418 58.483-.06.48-.48.54-58.484.061-58.484a.307.307 0 01-.306-.306C58.85.105 65.594 0 78.468 0 91.34 0 98.085.105 98.085.307a.307.307 0 01-.307.306c-.478 0-.418 58.004.062 58.483.479.48 58.483.54 58.483.061 0-.168.138-.306.306-.306.201 0 .307 6.743.307 19.617 0 12.873-.106 19.617-.307 19.617a.307.307 0 01-.306-.307c0-.478-58.004-.418-58.483.062-.48.479-.54 58.483-.062 58.483.169 0 .307.138.307.306 0 .201-6.744.307-19.617.307-12.874 0-19.617-.106-19.617-.307z" fill="#4a0000"/><path d="M58.85 156.63c0-.17.139-.307.307-.307.479 0 .418-58.004-.06-58.483-.48-.48-58.484-.54-58.484-.062a.307.307 0 01-.306.307C.105 98.085 0 91.34 0 78.468 0 65.594.105 58.85.307 58.85c.168 0 .306.138.306.306 0 .479 58.004.418 58.483-.06.48-.48.54-58.484.061-58.484a.307.307 0 01-.306-.306C58.85.105 65.594 0 78.468 0 91.34 0 98.085.105 98.085.307a.307.307 0 01-.307.306c-.478 0-.418 58.004.062 58.483.479.48 58.483.54 58.483.061 0-.168.138-.306.306-.306.201 0 .307 6.743.307 19.617 0 12.873-.106 19.617-.307 19.617a.307.307 0 01-.306-.307c0-.478-58.004-.418-58.483.062-.48.479-.54 58.483-.062 58.483.169 0 .307.138.307.306 0 .201-6.744.307-19.617.307-12.874 0-19.617-.106-19.617-.307zm30.346-38.009l.153-29.272 29.272-.153 29.273-.153v-21.15l-29.273-.153-29.272-.153-.153-29.273-.153-29.272h-21.15l-.153 29.272-.153 29.273-29.273.153-29.272.153v21.15l29.272.153 29.273.153.075 28.966c.042 15.93.142 29.14.222 29.353.115.303 2.411.37 10.652.306l10.507-.08z" fill="#300000"/><path d="M58.85 156.63c0-.17.139-.307.307-.307.479 0 .418-58.004-.06-58.483-.48-.48-58.484-.54-58.484-.062a.307.307 0 01-.306.307C.105 98.085 0 91.34 0 78.468 0 65.594.105 58.85.307 58.85c.168 0 .306.138.306.306 0 .479 58.004.418 58.483-.06.48-.48.54-58.484.061-58.484a.307.307 0 01-.306-.306C58.85.105 65.594 0 78.468 0 91.34 0 98.085.105 98.085.307a.307.307 0 01-.307.306c-.478 0-.418 58.004.062 58.483.479.48 58.483.54 58.483.061 0-.168.138-.306.306-.306.201 0 .307 6.743.307 19.617 0 12.873-.106 19.617-.307 19.617a.307.307 0 01-.306-.307c0-.478-58.004-.418-58.483.062-.48.479-.54 58.483-.062 58.483.169 0 .307.138.307.306 0 .201-6.744.307-19.617.307-12.874 0-19.617-.106-19.617-.307zm30.652-37.702l.154-29.272 29.272-.154 29.272-.153V67.587l-29.272-.154-29.272-.153-.154-29.272-.153-29.272H67.587l-.154 29.272-.153 29.272-29.272.153-29.272.154v21.762l29.272.153 29.272.154.076 28.965c.042 15.931.141 29.14.222 29.353.114.304 2.472.37 10.958.307l10.813-.081z" fill="#1a0101"/><path d="M58.85 156.63c0-.17.139-.307.307-.307.479 0 .418-58.004-.06-58.483-.48-.48-58.484-.54-58.484-.062a.307.307 0 01-.306.307C.105 98.085 0 91.34 0 78.468 0 65.594.105 58.85.307 58.85c.168 0 .306.138.306.306 0 .479 58.004.418 58.483-.06.48-.48.54-58.484.061-58.484a.307.307 0 01-.306-.306C58.85.105 65.594 0 78.468 0 91.34 0 98.085.105 98.085.307a.307.307 0 01-.307.306c-.478 0-.418 58.004.062 58.483.479.48 58.483.54 58.483.061 0-.168.138-.306.306-.306.201 0 .307 6.743.307 19.617 0 12.873-.106 19.617-.307 19.617a.307.307 0 01-.306-.307c0-.478-58.004-.418-58.483.062-.48.479-.54 58.483-.062 58.483.169 0 .307.138.307.306 0 .201-6.744.307-19.617.307-12.874 0-19.617-.106-19.617-.307zm30.959-37.396l.153-29.272 29.272-.153 29.273-.153V67.28l-29.273-.153-29.272-.153L89.81 37.7 89.656 8.43H67.28l-.153 29.272-.153 29.273-29.273.153-29.272.153v22.376l29.272.153 29.273.153.075 28.966c.042 15.931.142 29.14.222 29.352.115.304 2.533.37 11.265.307l11.12-.08z" fill="#020101"/></svg>